GIL03_xfast2_RRA_states
nRows=4
nColumns=47

# SIMM Motion File Header:
name GIL03_xfast2_RRA_states
datacolumns 47
datarows 4
otherdata 1
range 0.54917000000000027000 0.55067000000000033000
endheader
time	pelvis_tx	pelvis_ty	pelvis_tz	pelvis_tilt	pelvis_list	pelvis_rotation	hip_flexion_r	hip_adduction_r	hip_rotation_r	knee_angle_r	ankle_angle_r	subtalar_angle_r	mtp_angle_r	hip_flexion_l	hip_adduction_l	hip_rotation_l	knee_angle_l	ankle_angle_l	subtalar_angle_l	mtp_angle_l	lumbar_extension	lumbar_bending	lumbar_rotation	pelvis_tx_u	pelvis_ty_u	pelvis_tz_u	pelvis_tilt_u	pelvis_list_u	pelvis_rotation_u	hip_flexion_r_u	hip_adduction_r_u	hip_rotation_r_u	knee_angle_r_u	ankle_angle_r_u	subtalar_angle_r_u	mtp_angle_r_u	hip_flexion_l_u	hip_adduction_l_u	hip_rotation_l_u	knee_angle_l_u	ankle_angle_l_u	subtalar_angle_l_u	mtp_angle_l_u	lumbar_extension_u	lumbar_bending_u	lumbar_rotation_u
      0.54917000000000027000	      1.51748813050909750000	      0.88756337419221853000	     -0.21858211931973778000	     -3.80878165543361250000	     -5.16343136019651360000	     -9.03704657104604080000	     -3.37716591544551830000	      8.61407584677634120000	      2.61019618207103350000	      1.08729616230636880000	      3.89317319178759510000	     -0.00000000000002329402	      0.00000000000008183250	     26.48291621258506700000	     -9.54378941654221610000	     -2.76223506051113970000	    -62.29756951395334900000	     14.25159219237616200000	      0.00000000000003733338	     -0.00000000000007251625	     -5.61627968555874270000	      4.20184479516544140000	     21.71676951693499200000	      1.81828170934796880000	      0.01435544048884711800	      0.27743051100628546000	      2.12563980878861750000	     49.83383927044512500000	   -120.28701483121667000000	   -213.86178729879111000000	    -59.32674470311099000000	     12.45338121906013000000	    162.93470406540911000000	     -6.19773005085461290000	     -0.00000000000042468266	      0.00000000000095806065	    136.68012877632094000000	     12.00769508864903500000	     18.36629224651136000000	    273.84451661052805000000	     25.51471742573360400000	      0.00000000000001728737	     -0.00000000000009093778	    -36.10390700636911300000	    -89.89185582675055700000	     25.87815993069599000000
      0.54967000000000033000	      1.51839710031626460000	      0.88756990054538709000	     -0.21844360645890709000	     -3.80764493416292990000	     -5.13857108853008080000	     -9.09718730666053690000	     -3.48396824941813410000	      8.58439925704585600000	      2.61633696245165080000	      1.16843887697799280000	      3.89017866302682870000	     -0.00000000000002350205	      0.00000000000008230182	     26.55093563574096600000	     -9.53785394196064120000	     -2.75271587650857260000	    -62.16005913561552600000	     14.26404995590462800000	      0.00000000000003734192	     -0.00000000000007256199	     -5.63443820005071230000	      4.15697304215234630000	     21.72975912626749600000	      1.81759976348627820000	      0.01175047892218029000	      0.27661915134232656000	      2.41953554453884450000	     49.60668088259615900000	   -120.27582274543725000000	   -213.34557465874917000000	    -59.37825252233319900000	     12.11319733808893100000	    161.63506255182563000000	     -5.77944644123605220000	     -0.00000000000042003400	      0.00000000000092943813	    135.39841190183330000000	     11.73446969475807600000	     19.71047150704485800000	    276.19734969024131000000	     24.31432663230875200000	      0.00000000000001698367	     -0.00000000000009315960	    -36.52772631995048200000	    -89.59414733455277300000	     26.08278610452547900000
      0.55017000000000027000	      1.51930573252298770000	      0.88757512523694682000	     -0.21830550189519829000	     -3.80636382551002580000	     -5.11382519322068240000	     -9.15732234123010080000	     -3.59050952012210180000	      8.55469889318687040000	      2.62231283235273470000	      1.24893019180788230000	      3.88739368484703670000	     -0.00000000000002371188	      0.00000000000008276432	     26.61831545309271600000	     -9.53205466354011750000	     -2.74252469691482490000	    -62.02137182583614800000	     14.27590452541702100000	      0.00000000000003735030	     -0.00000000000007260887	     -5.65280498171266910000	      4.11225160110747720000	     21.74285480109246600000	      1.81693132126669490000	      0.00914891576403750910	      0.27579743116433136000	      2.70319789830836580000	     49.37643982856533900000	   -120.26431468086967000000	   -212.81754354114747000000	    -59.42196761313885400000	     11.79373043582034700000	    160.32922476849009000000	     -5.36152388649579500000	     -0.00000000000043195689	      0.00000000000094318606	    134.12166778380967000000	     11.46294509050207300000	     21.05400145198629500000	    278.55221042789003000000	     23.10197585308330700000	      0.00000000000001688405	     -0.00000000000009317075	    -36.93696454174240500000	    -89.29072022159725500000	     26.30239967007985800000
      0.55067000000000033000	      1.52021403391586380000	      0.88757905009563209000	     -0.21816781075759134000	     -3.80494343531041810000	     -5.08919513008730370000	     -9.21745155793506930000	     -3.69678383442216820000	      8.52497855337415980000	      2.62813409580463860000	      1.32876707482694160000	      3.88481706522548990000	     -0.00000000000002392743	      0.00000000000008323794	     26.68505812867751800000	     -9.52639069906882700000	     -2.73166206114066590000	    -61.88150661285365600000	     14.28714993910696800000	      0.00000000000003735816	     -0.00000000000007265569	     -5.67137273159136960000	      4.06768324868566290000	     21.75606395631201200000	      1.81627654997982830000	      0.00655116244131113190	      0.27496533305421728000	      2.97666558152707680000	     49.14331107315356900000	   -120.25242640801810000000	   -212.27776184071223000000	    -59.45809928790928500000	     11.49468135302092300000	    159.01722704173207000000	     -4.94404449036674000000	     -0.00000000000043233513	      0.00000000000096637704	    132.84987611414780000000	     11.19320800922454100000	     22.39641281194353800000	    280.90894229927335000000	     21.87767063376829300000	      0.00000000000001498401	     -0.00000000000009336782	    -37.33160428941892000000	    -88.98173329171297000000	     26.53659539984230200000
